<svg xmlns="http://www.w3.org/2000/svg" xmlns:xlink="http://www.w3.org/1999/xlink" width="1500" zoomAndPan="magnify" viewBox="0 0 1125 1124.99995" height="1500" preserveAspectRatio="xMidYMid meet" version="1.0"><defs><g/><clipPath id="7e9f0eb7c2"><path d="M 435 402.472656 L 557 402.472656 L 557 523.222656 L 435 523.222656 Z M 435 402.472656 " clip-rule="nonzero"/></clipPath><clipPath id="59a82dbaa7"><path d="M 502 402.472656 L 623 402.472656 L 623 523.222656 L 502 523.222656 Z M 502 402.472656 " clip-rule="nonzero"/></clipPath><clipPath id="73612024d6"><path d="M 568 402.472656 L 689.824219 402.472656 L 689.824219 523.222656 L 568 523.222656 Z M 568 402.472656 " clip-rule="nonzero"/></clipPath><clipPath id="dea1bb9b11"><path d="M 49 60 L 1078.921875 60 L 1078.921875 1066 L 49 1066 Z M 49 60 " clip-rule="nonzero"/></clipPath></defs><rect x="-112.5" width="1350" fill="#ffffff" y="-112.499995" height="1349.99994" fill-opacity="1"/><rect x="-112.5" width="1350" fill="#e4e5e6" y="-112.499995" height="1349.99994" fill-opacity="1"/><g clip-path="url(#7e9f0eb7c2)"><path fill="#17410f" d="M 495.617188 523.398438 C 462.304688 523.398438 435.15625 496.300781 435.15625 462.9375 C 435.15625 429.570312 462.304688 402.472656 495.617188 402.472656 C 528.929688 402.472656 556.082031 429.621094 556.082031 462.9375 C 556.082031 496.25 528.984375 523.398438 495.617188 523.398438 Z M 495.617188 406.597656 C 464.546875 406.597656 439.28125 431.863281 439.28125 462.9375 C 439.28125 494.007812 464.546875 519.273438 495.617188 519.273438 C 526.691406 519.273438 551.957031 494.007812 551.957031 462.9375 C 551.957031 431.863281 526.691406 406.597656 495.617188 406.597656 Z M 495.617188 406.597656 " fill-opacity="1" fill-rule="nonzero"/></g><g clip-path="url(#59a82dbaa7)"><path fill="#17410f" d="M 562.5 523.398438 C 529.136719 523.398438 502.035156 496.300781 502.035156 462.9375 C 502.035156 429.570312 529.136719 402.472656 562.5 402.472656 C 595.863281 402.472656 622.960938 429.621094 622.960938 462.9375 C 622.960938 496.25 595.863281 523.398438 562.5 523.398438 Z M 562.5 406.597656 C 531.425781 406.597656 506.164062 431.863281 506.164062 462.9375 C 506.164062 494.007812 531.425781 519.273438 562.5 519.273438 C 593.570312 519.273438 618.835938 494.007812 618.835938 462.9375 C 618.835938 431.863281 593.570312 406.597656 562.5 406.597656 Z M 562.5 406.597656 " fill-opacity="1" fill-rule="nonzero"/></g><g clip-path="url(#73612024d6)"><path fill="#17410f" d="M 629.378906 523.398438 C 596.015625 523.398438 568.917969 496.300781 568.917969 462.9375 C 568.917969 429.570312 596.015625 402.472656 629.378906 402.472656 C 662.746094 402.472656 689.84375 429.621094 689.84375 462.9375 C 689.84375 496.25 662.746094 523.398438 629.378906 523.398438 Z M 629.378906 406.597656 C 598.308594 406.597656 573.042969 431.863281 573.042969 462.9375 C 573.042969 494.007812 598.308594 519.273438 629.378906 519.273438 C 660.453125 519.273438 685.71875 494.007812 685.71875 462.9375 C 685.71875 431.863281 660.453125 406.597656 629.378906 406.597656 Z M 629.378906 406.597656 " fill-opacity="1" fill-rule="nonzero"/></g><path fill="#17410f" d="M 598.972656 423.714844 L 592.910156 423.714844 C 593.878906 422.796875 594.894531 421.929688 595.914062 421.117188 C 596.984375 421.929688 598.003906 422.847656 598.972656 423.714844 Z M 598.972656 423.714844 " fill-opacity="1" fill-rule="nonzero"/><path fill="#17410f" d="M 606.816406 432.882812 L 585.066406 432.882812 C 586.03125 431.457031 587.050781 430.082031 588.171875 428.757812 L 603.707031 428.757812 C 604.828125 430.082031 605.847656 431.457031 606.816406 432.882812 Z M 606.816406 432.882812 " fill-opacity="1" fill-rule="nonzero"/><path fill="#17410f" d="M 611.808594 442.050781 L 580.074219 442.050781 C 580.683594 440.625 581.347656 439.25 582.058594 437.925781 L 609.820312 437.925781 C 610.535156 439.25 611.195312 440.675781 611.808594 442.050781 Z M 611.808594 442.050781 " fill-opacity="1" fill-rule="nonzero"/><path fill="#17410f" d="M 614.761719 451.21875 L 577.167969 451.21875 C 577.476562 449.792969 577.832031 448.417969 578.289062 447.09375 L 613.691406 447.09375 C 614.046875 448.46875 614.457031 449.84375 614.761719 451.21875 Z M 614.761719 451.21875 " fill-opacity="1" fill-rule="nonzero"/><path fill="#17410f" d="M 615.984375 460.390625 L 575.894531 460.390625 C 575.945312 459.015625 576.101562 457.585938 576.253906 456.261719 L 615.628906 456.261719 C 615.78125 457.636719 615.933594 459.015625 615.984375 460.390625 Z M 615.984375 460.390625 " fill-opacity="1" fill-rule="nonzero"/><path fill="#17410f" d="M 615.984375 465.433594 C 615.933594 466.808594 615.78125 468.234375 615.628906 469.558594 L 576.253906 469.558594 C 576.050781 468.183594 575.945312 466.808594 575.894531 465.433594 Z M 615.984375 465.433594 " fill-opacity="1" fill-rule="nonzero"/><path fill="#17410f" d="M 614.761719 474.601562 C 614.457031 475.976562 614.097656 477.402344 613.640625 478.726562 L 578.1875 478.726562 C 577.78125 477.351562 577.375 475.976562 577.066406 474.601562 Z M 614.761719 474.601562 " fill-opacity="1" fill-rule="nonzero"/><path fill="#17410f" d="M 611.808594 483.769531 C 611.195312 485.195312 610.585938 486.570312 609.820312 487.894531 L 582.007812 487.894531 C 581.296875 486.519531 580.632812 485.144531 580.023438 483.769531 Z M 611.808594 483.769531 " fill-opacity="1" fill-rule="nonzero"/><path fill="#17410f" d="M 606.867188 492.9375 C 605.898438 494.363281 604.878906 495.738281 603.757812 497.0625 L 588.171875 497.0625 C 587.050781 495.738281 586.03125 494.363281 585.066406 492.9375 Z M 606.867188 492.9375 " fill-opacity="1" fill-rule="nonzero"/><path fill="#17410f" d="M 599.023438 502.105469 C 598.054688 503.023438 596.984375 503.941406 595.914062 504.808594 C 594.84375 503.941406 593.824219 503.074219 592.808594 502.105469 Z M 599.023438 502.105469 " fill-opacity="1" fill-rule="nonzero"/><path fill="#17410f" d="M 532.089844 423.714844 L 526.027344 423.714844 C 526.996094 422.796875 528.015625 421.929688 529.035156 421.117188 C 530.101562 421.929688 531.121094 422.847656 532.089844 423.714844 Z M 532.089844 423.714844 " fill-opacity="1" fill-rule="nonzero"/><path fill="#17410f" d="M 549.101562 460.390625 L 509.015625 460.390625 C 509.066406 459.015625 509.21875 457.585938 509.371094 456.261719 L 548.746094 456.261719 C 548.898438 457.636719 549.050781 459.015625 549.101562 460.390625 Z M 549.101562 460.390625 " fill-opacity="1" fill-rule="nonzero"/><path fill="#17410f" d="M 532.140625 502.105469 C 531.171875 503.023438 530.101562 503.941406 529.035156 504.808594 C 527.964844 503.941406 526.945312 503.074219 525.925781 502.105469 Z M 532.140625 502.105469 " fill-opacity="1" fill-rule="nonzero"/><path fill="#17410f" d="M 539.933594 432.882812 L 518.183594 432.882812 C 519.152344 431.457031 520.171875 430.082031 521.289062 428.757812 L 536.828125 428.757812 C 537.949219 430.082031 538.964844 431.457031 539.933594 432.882812 Z M 539.933594 432.882812 " fill-opacity="1" fill-rule="nonzero"/><path fill="#17410f" d="M 544.925781 442.050781 L 513.191406 442.050781 C 513.804688 440.625 514.464844 439.25 515.179688 437.925781 L 542.9375 437.925781 C 543.652344 439.25 544.316406 440.675781 544.925781 442.050781 Z M 544.925781 442.050781 " fill-opacity="1" fill-rule="nonzero"/><path fill="#17410f" d="M 547.878906 451.21875 L 510.289062 451.21875 C 510.59375 449.792969 510.949219 448.417969 511.410156 447.09375 L 546.8125 447.09375 C 547.167969 448.46875 547.574219 449.84375 547.878906 451.21875 Z M 547.878906 451.21875 " fill-opacity="1" fill-rule="nonzero"/><path fill="#17410f" d="M 539.984375 492.9375 C 539.015625 494.363281 538 495.738281 536.878906 497.0625 L 521.238281 497.0625 C 520.121094 495.738281 519.101562 494.363281 518.132812 492.9375 Z M 539.984375 492.9375 " fill-opacity="1" fill-rule="nonzero"/><path fill="#17410f" d="M 544.925781 483.769531 C 544.316406 485.195312 543.652344 486.570312 542.9375 487.894531 L 515.128906 487.894531 C 514.414062 486.519531 513.753906 485.144531 513.140625 483.769531 Z M 544.925781 483.769531 " fill-opacity="1" fill-rule="nonzero"/><path fill="#17410f" d="M 547.878906 474.601562 C 547.574219 475.976562 547.21875 477.402344 546.757812 478.726562 L 511.308594 478.726562 C 510.898438 477.351562 510.492188 475.976562 510.1875 474.601562 Z M 547.878906 474.601562 " fill-opacity="1" fill-rule="nonzero"/><path fill="#17410f" d="M 549.101562 465.433594 C 549.050781 466.808594 548.898438 468.234375 548.746094 469.558594 L 509.371094 469.558594 C 509.167969 468.183594 509.066406 466.808594 509.015625 465.433594 Z M 549.101562 465.433594 " fill-opacity="1" fill-rule="nonzero"/><path fill="#17410f" d="M 539.933594 432.882812 L 518.183594 432.882812 C 519.152344 431.457031 520.171875 430.082031 521.289062 428.757812 L 536.828125 428.757812 C 537.949219 430.082031 538.964844 431.457031 539.933594 432.882812 Z M 539.933594 432.882812 " fill-opacity="1" fill-rule="nonzero"/><path fill="#17410f" d="M 544.925781 442.050781 L 513.191406 442.050781 C 513.804688 440.625 514.464844 439.25 515.179688 437.925781 L 542.9375 437.925781 C 543.652344 439.25 544.316406 440.675781 544.925781 442.050781 Z M 544.925781 442.050781 " fill-opacity="1" fill-rule="nonzero"/><path fill="#17410f" d="M 547.878906 451.21875 L 510.289062 451.21875 C 510.59375 449.792969 510.949219 448.417969 511.410156 447.09375 L 546.8125 447.09375 C 547.167969 448.46875 547.574219 449.84375 547.878906 451.21875 Z M 547.878906 451.21875 " fill-opacity="1" fill-rule="nonzero"/><path fill="#17410f" d="M 549.101562 465.433594 C 549.050781 466.808594 548.898438 468.234375 548.746094 469.558594 L 509.371094 469.558594 C 509.167969 468.183594 509.066406 466.808594 509.015625 465.433594 Z M 549.101562 465.433594 " fill-opacity="1" fill-rule="nonzero"/><path fill="#17410f" d="M 547.878906 474.601562 C 547.574219 475.976562 547.21875 477.402344 546.757812 478.726562 L 511.308594 478.726562 C 510.898438 477.351562 510.492188 475.976562 510.1875 474.601562 Z M 547.878906 474.601562 " fill-opacity="1" fill-rule="nonzero"/><path fill="#17410f" d="M 544.925781 483.769531 C 544.316406 485.195312 543.652344 486.570312 542.9375 487.894531 L 515.128906 487.894531 C 514.414062 486.519531 513.753906 485.144531 513.140625 483.769531 Z M 544.925781 483.769531 " fill-opacity="1" fill-rule="nonzero"/><path fill="#17410f" d="M 539.984375 492.9375 C 539.015625 494.363281 538 495.738281 536.878906 497.0625 L 521.238281 497.0625 C 520.121094 495.738281 519.101562 494.363281 518.132812 492.9375 Z M 539.984375 492.9375 " fill-opacity="1" fill-rule="nonzero"/><path fill="#17410f" d="M 532.089844 423.714844 L 526.027344 423.714844 C 526.996094 422.796875 528.015625 421.929688 529.035156 421.117188 C 530.101562 421.929688 531.121094 422.847656 532.089844 423.714844 Z M 532.089844 423.714844 " fill-opacity="1" fill-rule="nonzero"/><path fill="#17410f" d="M 549.101562 460.390625 L 509.015625 460.390625 C 509.066406 459.015625 509.21875 457.585938 509.371094 456.261719 L 548.746094 456.261719 C 548.898438 457.636719 549.050781 459.015625 549.101562 460.390625 Z M 549.101562 460.390625 " fill-opacity="1" fill-rule="nonzero"/><path fill="#17410f" d="M 525.976562 502.105469 L 532.140625 502.105469 C 531.171875 503.023438 530.101562 503.941406 529.035156 504.808594 C 528.015625 503.890625 526.945312 503.023438 525.976562 502.105469 Z M 525.976562 502.105469 " fill-opacity="1" fill-rule="nonzero"/><g clip-path="url(#dea1bb9b11)"><path fill="#617143" d="M 1059.746094 576.625 C 1057.765625 632.625 1046.421875 688.28125 1026.210938 740.460938 C 1002.5 801.945312 966.6875 858.609375 921.566406 906.425781 C 876.492188 954.292969 822.085938 993.292969 762.242188 1020.410156 C 702.445312 1047.601562 637.308594 1062.738281 571.808594 1065.066406 C 506.28125 1067.492188 440.335938 1057.082031 378.925781 1034.371094 C 317.464844 1011.761719 260.609375 977 212.421875 932.832031 C 164.191406 888.714844 124.652344 835.1875 96.875 776.101562 C 69 717.066406 53.074219 652.515625 49.816406 587.476562 C 46.414062 522.386719 55.769531 456.6875 77.449219 395.324219 C 99.03125 333.933594 132.761719 276.929688 175.972656 228.402344 C 219.136719 179.847656 271.777344 139.796875 330.078125 111.308594 C 388.355469 82.769531 452.21875 65.988281 516.839844 61.75 C 581.460938 57.363281 646.914062 65.71875 708.226562 86.367188 C 769.566406 106.945312 826.714844 139.675781 875.5625 181.929688 C 924.429688 224.140625 964.996094 275.902344 994.148438 333.417969 C 1023.371094 390.914062 1041.007812 454.164062 1046.203125 518.347656 C 1040.492188 454.1875 1022.367188 391.207031 992.800781 334.105469 C 963.28125 276.980469 922.496094 225.804688 873.578125 184.234375 C 824.707031 142.613281 767.726562 110.597656 706.804688 90.679688 C 645.882812 70.691406 581.089844 62.972656 517.277344 67.800781 C 453.441406 72.480469 390.585938 89.554688 333.433594 118.117188 C 276.234375 146.605469 224.792969 186.414062 182.808594 234.429688 C 140.746094 282.394531 108.117188 338.5625 87.46875 398.800781 C 66.71875 459.039062 58.097656 523.292969 61.917969 586.789062 C 65.617188 650.285156 81.636719 713.023438 109.195312 770.246094 C 136.679688 827.496094 175.507812 879.183594 222.636719 921.613281 C 269.71875 964.089844 325.058594 997.308594 384.632812 1018.695312 C 444.183594 1040.179688 507.898438 1049.707031 571.046875 1046.867188 C 634.222656 1044.148438 696.789062 1029.054688 754.035156 1002.476562 C 811.308594 975.972656 863.214844 938.125 906.058594 891.921875 C 948.953125 845.746094 982.757812 791.242188 1004.949219 732.375 C 1023.789062 682.597656 1034.148438 629.734375 1035.691406 576.625 C 1025.402344 572.164062 1017.980469 562.171875 1017.371094 550.242188 C 1016.535156 533.460938 1029.421875 519.179688 1046.203125 518.347656 C 1062.957031 517.488281 1077.238281 530.398438 1078.070312 547.15625 C 1078.734375 560.210938 1071.066406 571.75 1059.746094 576.625 Z M 1059.746094 576.625 " fill-opacity="1" fill-rule="nonzero"/></g><path fill="#df7857" d="M 947.433594 556 C 947.75 607.222656 938.027344 658.46875 918.84375 705.871094 C 899.738281 753.320312 871.273438 796.875 835.707031 833.472656 C 800.160156 870.097656 757.488281 899.738281 710.800781 920.09375 C 664.109375 940.523438 613.449219 951.546875 562.644531 952.75 C 511.839844 954.046875 460.789062 945.375 413.390625 927.222656 C 365.964844 909.121094 322.214844 881.660156 285.273438 847.019531 C 248.285156 812.40625 218.105469 770.613281 197.039062 724.660156 C 175.898438 678.726562 163.996094 628.679688 161.839844 578.265625 C 164.507812 628.65625 176.902344 678.480469 198.410156 724.023438 C 219.871094 769.585938 250.292969 810.839844 287.332031 844.816406 C 324.347656 878.816406 367.949219 905.566406 414.984375 922.960938 C 462.015625 940.453125 512.453125 948.460938 562.472656 946.699219 C 612.519531 945.03125 662.175781 933.664062 707.738281 913.1875 C 753.324219 892.757812 794.796875 863.3125 829.164062 827.179688 C 863.558594 791.070312 890.871094 748.296875 909.023438 701.949219 C 927.222656 655.625 936.117188 605.800781 935.332031 556.121094 C 934.621094 506.441406 924.308594 456.957031 904.832031 411.34375 C 885.382812 365.730469 856.945312 324.0625 821.695312 289.300781 C 786.492188 254.515625 744.554688 226.636719 698.917969 207.800781 C 653.28125 188.914062 604.019531 179.015625 554.710938 179.015625 C 505.398438 178.917969 456.160156 188.25 410.550781 206.699219 C 364.9375 225.09375 323.144531 252.652344 288.019531 286.949219 C 252.890625 321.21875 224.476562 362.300781 204.902344 407.230469 C 189.175781 443.214844 179.183594 481.675781 175.335938 520.722656 C 185.234375 525.695312 192.042969 535.910156 192.089844 547.742188 C 192.164062 564.523438 178.617188 578.191406 161.839844 578.265625 C 145.058594 578.339844 131.390625 564.792969 131.316406 548.011719 C 131.265625 534.785156 139.667969 523.464844 151.476562 519.277344 C 155.886719 477.460938 166.933594 436.355469 184.128906 398.042969 C 205.367188 350.640625 235.867188 307.527344 273.296875 271.710938 C 310.726562 235.898438 355.066406 207.285156 403.273438 188.449219 C 451.433594 169.488281 503.265625 160.226562 554.855469 160.863281 C 606.496094 161.378906 657.9375 172.253906 705.359375 192.441406 C 752.808594 212.601562 796.167969 242.070312 832.398438 278.597656 C 868.652344 315.070312 897.730469 358.625 917.375 406.078125 C 937.09375 453.503906 947.210938 504.773438 947.433594 555.996094 Z M 947.433594 556 " fill-opacity="1" fill-rule="nonzero"/><g fill="#1e1504" fill-opacity="1"><g transform="translate(247.438451, 653.669036)"><g><path d="M 62.09375 0 L 47.265625 -24.5625 C 46.492188 -24.488281 45.257812 -24.453125 43.5625 -24.453125 L 24.328125 -24.453125 L 24.328125 0 L 10.65625 0 L 10.65625 -81.09375 L 43.5625 -81.09375 C 53.914062 -81.09375 61.945312 -78.679688 67.65625 -73.859375 C 73.375 -69.035156 76.234375 -62.21875 76.234375 -53.40625 C 76.234375 -46.914062 74.785156 -41.429688 71.890625 -36.953125 C 68.992188 -32.472656 64.84375 -29.191406 59.4375 -27.109375 L 77.625 0 Z M 24.328125 -36.734375 L 43.5625 -36.734375 C 56.695312 -36.734375 63.265625 -42.175781 63.265625 -53.0625 C 63.265625 -63.570312 56.695312 -68.828125 43.5625 -68.828125 L 24.328125 -68.828125 Z M 24.328125 -36.734375 "/></g></g></g><g fill="#1e1504" fill-opacity="1"><g transform="translate(331.199136, 653.669036)"><g><path d="M 35.21875 -62.09375 C 45.800781 -62.09375 53.46875 -58.90625 58.21875 -52.53125 C 62.96875 -46.164062 64.914062 -37.226562 64.0625 -25.71875 L 17.5 -25.71875 C 18.570312 -20.925781 20.804688 -17.160156 24.203125 -14.421875 C 27.609375 -11.679688 31.742188 -10.3125 36.609375 -10.3125 C 43.554688 -10.3125 49.347656 -12.707031 53.984375 -17.5 L 61.0625 -9.96875 C 54.726562 -3.007812 46.226562 0.46875 35.5625 0.46875 C 26.0625 0.46875 18.4375 -2.40625 12.6875 -8.15625 C 6.9375 -13.914062 4.0625 -21.429688 4.0625 -30.703125 C 4.0625 -39.972656 6.957031 -47.503906 12.75 -53.296875 C 18.539062 -59.085938 26.03125 -62.019531 35.21875 -62.09375 Z M 17.265625 -35.453125 L 52.484375 -35.453125 C 52.253906 -40.398438 50.59375 -44.300781 47.5 -47.15625 C 44.414062 -50.007812 40.363281 -51.4375 35.34375 -51.4375 C 30.46875 -51.4375 26.425781 -50.007812 23.21875 -47.15625 C 20.019531 -44.300781 18.035156 -40.398438 17.265625 -35.453125 Z M 17.265625 -35.453125 "/></g></g></g><g fill="#1e1504" fill-opacity="1"><g transform="translate(399.319858, 653.669036)"><g><path d="M 28.265625 -62.21875 C 36.765625 -62.21875 43.945312 -60.128906 49.8125 -55.953125 L 44.953125 -46.109375 C 39.078125 -49.742188 33.171875 -51.5625 27.234375 -51.5625 C 21.203125 -51.5625 18.1875 -49.515625 18.1875 -45.421875 C 18.1875 -43.410156 19.304688 -41.75 21.546875 -40.4375 C 23.785156 -39.125 26.507812 -38.019531 29.71875 -37.125 C 32.925781 -36.238281 36.128906 -35.195312 39.328125 -34 C 42.535156 -32.800781 45.257812 -30.847656 47.5 -28.140625 C 49.738281 -25.441406 50.859375 -22.007812 50.859375 -17.84375 C 50.859375 -11.894531 48.597656 -7.351562 44.078125 -4.21875 C 39.566406 -1.09375 33.953125 0.46875 27.234375 0.46875 C 22.597656 0.46875 18.054688 -0.285156 13.609375 -1.796875 C 9.171875 -3.304688 5.445312 -5.410156 2.4375 -8.109375 L 7.1875 -17.609375 C 9.8125 -15.296875 13.035156 -13.441406 16.859375 -12.046875 C 20.679688 -10.660156 24.332031 -9.96875 27.8125 -9.96875 C 30.820312 -9.96875 33.253906 -10.503906 35.109375 -11.578125 C 36.960938 -12.660156 37.890625 -14.320312 37.890625 -16.5625 C 37.890625 -18.882812 36.769531 -20.738281 34.53125 -22.125 C 32.289062 -23.519531 29.585938 -24.640625 26.421875 -25.484375 C 23.253906 -26.335938 20.085938 -27.34375 16.921875 -28.5 C 13.753906 -29.65625 11.066406 -31.566406 8.859375 -34.234375 C 6.660156 -36.898438 5.5625 -40.28125 5.5625 -44.375 C 5.5625 -50.238281 7.742188 -54.675781 12.109375 -57.6875 C 16.472656 -60.707031 21.859375 -62.21875 28.265625 -62.21875 Z M 28.265625 -62.21875 "/></g></g></g><g fill="#1e1504" fill-opacity="1"><g transform="translate(453.770099, 653.669036)"><g><path d="M 45.296875 -62.09375 C 54.023438 -62.09375 61.113281 -59.175781 66.5625 -53.34375 C 72.007812 -47.519531 74.734375 -39.9375 74.734375 -30.59375 C 74.734375 -21.320312 72.066406 -13.828125 66.734375 -8.109375 C 61.398438 -2.390625 54.332031 0.46875 45.53125 0.46875 C 35.644531 0.46875 28.382812 -3.238281 23.75 -10.65625 L 23.75 22.484375 L 10.421875 22.484375 L 10.421875 -61.640625 L 23.75 -61.640625 L 23.75 -50.984375 C 28.382812 -58.390625 35.566406 -62.09375 45.296875 -62.09375 Z M 29.015625 -16.5 C 32.535156 -12.757812 37.035156 -10.890625 42.515625 -10.890625 C 48.003906 -10.890625 52.503906 -12.757812 56.015625 -16.5 C 59.535156 -20.25 61.296875 -25.097656 61.296875 -31.046875 C 61.296875 -36.835938 59.535156 -41.609375 56.015625 -45.359375 C 52.503906 -49.109375 48.003906 -50.984375 42.515625 -50.984375 C 37.035156 -50.984375 32.535156 -49.109375 29.015625 -45.359375 C 25.503906 -41.609375 23.75 -36.835938 23.75 -31.046875 C 23.75 -25.097656 25.503906 -20.25 29.015625 -16.5 Z M 29.015625 -16.5 "/></g></g></g><g fill="#1e1504" fill-opacity="1"><g transform="translate(532.54916, 653.669036)"><g><path d="M 10.890625 -85.09375 C 12.359375 -86.601562 14.210938 -87.359375 16.453125 -87.359375 C 18.691406 -87.359375 20.546875 -86.601562 22.015625 -85.09375 C 23.484375 -83.59375 24.21875 -81.644531 24.21875 -79.25 C 24.21875 -76.925781 23.484375 -75.007812 22.015625 -73.5 C 20.546875 -72 18.691406 -71.25 16.453125 -71.25 C 14.210938 -71.25 12.359375 -72 10.890625 -73.5 C 9.421875 -75.007812 8.6875 -76.925781 8.6875 -79.25 C 8.6875 -81.644531 9.421875 -83.59375 10.890625 -85.09375 Z M 23.0625 0 L 9.84375 0 L 9.84375 -61.640625 L 23.0625 -61.640625 Z M 23.0625 0 "/></g></g></g><g fill="#1e1504" fill-opacity="1"><g transform="translate(565.451013, 653.669036)"><g><path d="M 23.171875 -61.640625 L 23.171875 -49.359375 C 27.421875 -57.847656 34.523438 -62.09375 44.484375 -62.09375 L 44.484375 -49.359375 C 38.390625 -49.660156 33.445312 -48.226562 29.65625 -45.0625 C 25.875 -41.894531 23.710938 -37.609375 23.171875 -32.203125 L 23.171875 0 L 9.84375 0 L 9.84375 -61.640625 Z M 23.171875 -61.640625 "/></g></g></g><g fill="#1e1504" fill-opacity="1"><g transform="translate(611.096547, 653.669036)"><g><path d="M 68.59375 -68.828125 L 24.328125 -68.828125 L 24.328125 -46.921875 L 63.953125 -46.921875 L 63.953125 -34.640625 L 24.328125 -34.640625 L 24.328125 -12.28125 L 69.984375 -12.28125 L 69.984375 0 L 10.65625 0 L 10.65625 -81.09375 L 68.59375 -81.09375 Z M 68.59375 -68.828125 "/></g></g></g><g fill="#1e1504" fill-opacity="1"><g transform="translate(687.095152, 653.669036)"><g><path d="M 46.8125 0 L 46.8125 -7.53125 C 42.40625 -2.125 35.609375 0.578125 26.421875 0.578125 C 19.847656 0.578125 14.59375 -1.21875 10.65625 -4.8125 C 6.71875 -8.40625 4.75 -12.976562 4.75 -18.53125 C 4.75 -24.175781 6.796875 -28.65625 10.890625 -31.96875 C 14.984375 -35.289062 20.695312 -36.992188 28.03125 -37.078125 L 46.6875 -37.078125 L 46.6875 -38.921875 C 46.6875 -42.867188 45.429688 -45.921875 42.921875 -48.078125 C 40.410156 -50.242188 36.765625 -51.328125 31.984375 -51.328125 C 26.035156 -51.328125 19.96875 -49.238281 13.78125 -45.0625 L 8.34375 -54.34375 C 13.050781 -57.125 17.273438 -59.109375 21.015625 -60.296875 C 24.765625 -61.492188 29.382812 -62.09375 34.875 -62.09375 C 42.75 -62.09375 48.847656 -60.179688 53.171875 -56.359375 C 57.503906 -52.535156 59.707031 -47.226562 59.78125 -40.4375 L 59.90625 0 Z M 29.203125 -9.96875 C 33.910156 -9.96875 37.90625 -11.066406 41.1875 -13.265625 C 44.46875 -15.460938 46.300781 -18.265625 46.6875 -21.671875 L 46.6875 -27.34375 L 30 -27.34375 C 25.601562 -27.34375 22.378906 -26.703125 20.328125 -25.421875 C 18.285156 -24.148438 17.265625 -22.046875 17.265625 -19.109375 C 17.265625 -16.335938 18.328125 -14.117188 20.453125 -12.453125 C 22.578125 -10.796875 25.492188 -9.96875 29.203125 -9.96875 Z M 29.203125 -9.96875 "/></g></g></g><g fill="#1e1504" fill-opacity="1"><g transform="translate(754.984154, 653.669036)"><g><path d="M 28.265625 -62.21875 C 36.765625 -62.21875 43.945312 -60.128906 49.8125 -55.953125 L 44.953125 -46.109375 C 39.078125 -49.742188 33.171875 -51.5625 27.234375 -51.5625 C 21.203125 -51.5625 18.1875 -49.515625 18.1875 -45.421875 C 18.1875 -43.410156 19.304688 -41.75 21.546875 -40.4375 C 23.785156 -39.125 26.507812 -38.019531 29.71875 -37.125 C 32.925781 -36.238281 36.128906 -35.195312 39.328125 -34 C 42.535156 -32.800781 45.257812 -30.847656 47.5 -28.140625 C 49.738281 -25.441406 50.859375 -22.007812 50.859375 -17.84375 C 50.859375 -11.894531 48.597656 -7.351562 44.078125 -4.21875 C 39.566406 -1.09375 33.953125 0.46875 27.234375 0.46875 C 22.597656 0.46875 18.054688 -0.285156 13.609375 -1.796875 C 9.171875 -3.304688 5.445312 -5.410156 2.4375 -8.109375 L 7.1875 -17.609375 C 9.8125 -15.296875 13.035156 -13.441406 16.859375 -12.046875 C 20.679688 -10.660156 24.332031 -9.96875 27.8125 -9.96875 C 30.820312 -9.96875 33.253906 -10.503906 35.109375 -11.578125 C 36.960938 -12.660156 37.890625 -14.320312 37.890625 -16.5625 C 37.890625 -18.882812 36.769531 -20.738281 34.53125 -22.125 C 32.289062 -23.519531 29.585938 -24.640625 26.421875 -25.484375 C 23.253906 -26.335938 20.085938 -27.34375 16.921875 -28.5 C 13.753906 -29.65625 11.066406 -31.566406 8.859375 -34.234375 C 6.660156 -36.898438 5.5625 -40.28125 5.5625 -44.375 C 5.5625 -50.238281 7.742188 -54.675781 12.109375 -57.6875 C 16.472656 -60.707031 21.859375 -62.21875 28.265625 -62.21875 Z M 28.265625 -62.21875 "/></g></g></g><g fill="#1e1504" fill-opacity="1"><g transform="translate(809.434406, 653.669036)"><g><path d="M 35.21875 -62.09375 C 45.800781 -62.09375 53.46875 -58.90625 58.21875 -52.53125 C 62.96875 -46.164062 64.914062 -37.226562 64.0625 -25.71875 L 17.5 -25.71875 C 18.570312 -20.925781 20.804688 -17.160156 24.203125 -14.421875 C 27.609375 -11.679688 31.742188 -10.3125 36.609375 -10.3125 C 43.554688 -10.3125 49.347656 -12.707031 53.984375 -17.5 L 61.0625 -9.96875 C 54.726562 -3.007812 46.226562 0.46875 35.5625 0.46875 C 26.0625 0.46875 18.4375 -2.40625 12.6875 -8.15625 C 6.9375 -13.914062 4.0625 -21.429688 4.0625 -30.703125 C 4.0625 -39.972656 6.957031 -47.503906 12.75 -53.296875 C 18.539062 -59.085938 26.03125 -62.019531 35.21875 -62.09375 Z M 17.265625 -35.453125 L 52.484375 -35.453125 C 52.253906 -40.398438 50.59375 -44.300781 47.5 -47.15625 C 44.414062 -50.007812 40.363281 -51.4375 35.34375 -51.4375 C 30.46875 -51.4375 26.425781 -50.007812 23.21875 -47.15625 C 20.019531 -44.300781 18.035156 -40.398438 17.265625 -35.453125 Z M 17.265625 -35.453125 "/></g></g></g><g fill="#1e1504" fill-opacity="1"><g transform="translate(308.841738, 715.02671)"><g><path d="M 25.15625 0 L 20.921875 0 L 20.921875 -10.4375 L 7.5625 -10.4375 L 7.5625 0 L 3.3125 0 L 3.3125 -25.203125 L 7.5625 -25.203125 L 7.5625 -14.25 L 20.921875 -14.25 L 20.921875 -25.203125 L 25.15625 -25.203125 Z M 25.15625 0 "/></g></g></g><g fill="#1e1504" fill-opacity="1"><g transform="translate(337.317795, 715.02671)"><g><path d="M 21.3125 -21.390625 L 7.5625 -21.390625 L 7.5625 -14.578125 L 19.875 -14.578125 L 19.875 -10.765625 L 7.5625 -10.765625 L 7.5625 -3.8125 L 21.75 -3.8125 L 21.75 0 L 3.3125 0 L 3.3125 -25.203125 L 21.3125 -25.203125 Z M 21.3125 -21.390625 "/></g></g></g><g fill="#1e1504" fill-opacity="1"><g transform="translate(360.933844, 715.02671)"><g><path d="M 19.578125 -5.6875 L 6.875 -5.6875 L 4.46875 0 L 0.03125 0 L 11.15625 -25.203125 L 15.515625 -25.203125 L 26.53125 0 L 22 0 Z M 17.96875 -9.46875 L 13.21875 -20.65625 L 8.453125 -9.46875 Z M 17.96875 -9.46875 "/></g></g></g><g fill="#1e1504" fill-opacity="1"><g transform="translate(387.501895, 715.02671)"><g><path d="M 7.5625 -3.859375 L 18.46875 -3.859375 L 18.46875 0 L 3.3125 0 L 3.3125 -25.203125 L 7.5625 -25.203125 Z M 7.5625 -3.859375 "/></g></g></g><g fill="#1e1504" fill-opacity="1"><g transform="translate(406.725931, 715.02671)"><g><path d="M 20.515625 -21.390625 L 12.53125 -21.390625 L 12.53125 0 L 8.28125 0 L 8.28125 -21.390625 L 0.328125 -21.390625 L 0.328125 -25.203125 L 20.515625 -25.203125 Z M 20.515625 -21.390625 "/></g></g></g><g fill="#1e1504" fill-opacity="1"><g transform="translate(427.569969, 715.02671)"><g><path d="M 25.15625 0 L 20.921875 0 L 20.921875 -10.4375 L 7.5625 -10.4375 L 7.5625 0 L 3.3125 0 L 3.3125 -25.203125 L 7.5625 -25.203125 L 7.5625 -14.25 L 20.921875 -14.25 L 20.921875 -25.203125 L 25.15625 -25.203125 Z M 25.15625 0 "/></g></g></g><g fill="#1e1504" fill-opacity="1"><g transform="translate(456.046026, 715.02671)"><g/></g></g><g fill="#1e1504" fill-opacity="1"><g transform="translate(465.334038, 715.02671)"><g><path d="M 20.515625 -21.390625 L 12.53125 -21.390625 L 12.53125 0 L 8.28125 0 L 8.28125 -21.390625 L 0.328125 -21.390625 L 0.328125 -25.203125 L 20.515625 -25.203125 Z M 20.515625 -21.390625 "/></g></g></g><g fill="#1e1504" fill-opacity="1"><g transform="translate(486.178076, 715.02671)"><g><path d="M 21.3125 -21.390625 L 7.5625 -21.390625 L 7.5625 -14.578125 L 19.875 -14.578125 L 19.875 -10.765625 L 7.5625 -10.765625 L 7.5625 -3.8125 L 21.75 -3.8125 L 21.75 0 L 3.3125 0 L 3.3125 -25.203125 L 21.3125 -25.203125 Z M 21.3125 -21.390625 "/></g></g></g><g fill="#1e1504" fill-opacity="1"><g transform="translate(509.794113, 715.02671)"><g><path d="M 14.46875 -25.3125 C 16.25 -25.3125 17.984375 -24.96875 19.671875 -24.28125 C 21.367188 -23.59375 22.828125 -22.640625 24.046875 -21.421875 L 21.5625 -18.328125 C 20.65625 -19.304688 19.578125 -20.082031 18.328125 -20.65625 C 17.078125 -21.238281 15.816406 -21.53125 14.546875 -21.53125 C 12.023438 -21.53125 9.894531 -20.671875 8.15625 -18.953125 C 6.414062 -17.234375 5.546875 -15.140625 5.546875 -12.671875 C 5.546875 -10.171875 6.414062 -8.0625 8.15625 -6.34375 C 9.894531 -4.632812 12.023438 -3.78125 14.546875 -3.78125 C 17.160156 -3.78125 19.5 -4.773438 21.5625 -6.765625 L 24.078125 -3.953125 C 22.785156 -2.679688 21.273438 -1.671875 19.546875 -0.921875 C 17.816406 -0.179688 16.078125 0.1875 14.328125 0.1875 C 10.628906 0.1875 7.519531 -1.039062 5 -3.5 C 2.476562 -5.96875 1.21875 -9.015625 1.21875 -12.640625 C 1.21875 -16.210938 2.492188 -19.21875 5.046875 -21.65625 C 7.609375 -24.09375 10.75 -25.3125 14.46875 -25.3125 Z M 14.46875 -25.3125 "/></g></g></g><g fill="#1e1504" fill-opacity="1"><g transform="translate(534.886152, 715.02671)"><g><path d="M 25.15625 0 L 20.921875 0 L 20.921875 -10.4375 L 7.5625 -10.4375 L 7.5625 0 L 3.3125 0 L 3.3125 -25.203125 L 7.5625 -25.203125 L 7.5625 -14.25 L 20.921875 -14.25 L 20.921875 -25.203125 L 25.15625 -25.203125 Z M 25.15625 0 "/></g></g></g><g fill="#1e1504" fill-opacity="1"><g transform="translate(563.362209, 715.02671)"><g/></g></g><g fill="#1e1504" fill-opacity="1"><g transform="translate(572.650233, 715.02671)"><g><path d="M 19.578125 -5.6875 L 6.875 -5.6875 L 4.46875 0 L 0.03125 0 L 11.15625 -25.203125 L 15.515625 -25.203125 L 26.53125 0 L 22 0 Z M 17.96875 -9.46875 L 13.21875 -20.65625 L 8.453125 -9.46875 Z M 17.96875 -9.46875 "/></g></g></g><g fill="#1e1504" fill-opacity="1"><g transform="translate(599.218285, 715.02671)"><g><path d="M 3.3125 -25.203125 L 13.359375 -25.203125 C 16.523438 -25.203125 18.976562 -24.453125 20.71875 -22.953125 C 22.457031 -21.453125 23.328125 -19.332031 23.328125 -16.59375 C 23.328125 -13.738281 22.457031 -11.523438 20.71875 -9.953125 C 18.976562 -8.378906 16.523438 -7.59375 13.359375 -7.59375 L 7.5625 -7.59375 L 7.5625 0 L 3.3125 0 Z M 7.5625 -21.390625 L 7.5625 -11.40625 L 13.171875 -11.40625 C 17.234375 -11.40625 19.265625 -13.097656 19.265625 -16.484375 C 19.265625 -19.753906 17.234375 -21.390625 13.171875 -21.390625 Z M 7.5625 -21.390625 "/></g></g></g><g fill="#1e1504" fill-opacity="1"><g transform="translate(623.446341, 715.02671)"><g><path d="M 3.3125 -25.203125 L 13.359375 -25.203125 C 16.523438 -25.203125 18.976562 -24.453125 20.71875 -22.953125 C 22.457031 -21.453125 23.328125 -19.332031 23.328125 -16.59375 C 23.328125 -13.738281 22.457031 -11.523438 20.71875 -9.953125 C 18.976562 -8.378906 16.523438 -7.59375 13.359375 -7.59375 L 7.5625 -7.59375 L 7.5625 0 L 3.3125 0 Z M 7.5625 -21.390625 L 7.5625 -11.40625 L 13.171875 -11.40625 C 17.234375 -11.40625 19.265625 -13.097656 19.265625 -16.484375 C 19.265625 -19.753906 17.234375 -21.390625 13.171875 -21.390625 Z M 7.5625 -21.390625 "/></g></g></g><g fill="#1e1504" fill-opacity="1"><g transform="translate(647.674396, 715.02671)"><g><path d="M 7.5625 -3.859375 L 18.46875 -3.859375 L 18.46875 0 L 3.3125 0 L 3.3125 -25.203125 L 7.5625 -25.203125 Z M 7.5625 -3.859375 "/></g></g></g><g fill="#1e1504" fill-opacity="1"><g transform="translate(666.898432, 715.02671)"><g><path d="M 7.5625 0 L 3.3125 0 L 3.3125 -25.203125 L 7.5625 -25.203125 Z M 7.5625 0 "/></g></g></g><g fill="#1e1504" fill-opacity="1"><g transform="translate(677.770456, 715.02671)"><g><path d="M 14.46875 -25.3125 C 16.25 -25.3125 17.984375 -24.96875 19.671875 -24.28125 C 21.367188 -23.59375 22.828125 -22.640625 24.046875 -21.421875 L 21.5625 -18.328125 C 20.65625 -19.304688 19.578125 -20.082031 18.328125 -20.65625 C 17.078125 -21.238281 15.816406 -21.53125 14.546875 -21.53125 C 12.023438 -21.53125 9.894531 -20.671875 8.15625 -18.953125 C 6.414062 -17.234375 5.546875 -15.140625 5.546875 -12.671875 C 5.546875 -10.171875 6.414062 -8.0625 8.15625 -6.34375 C 9.894531 -4.632812 12.023438 -3.78125 14.546875 -3.78125 C 17.160156 -3.78125 19.5 -4.773438 21.5625 -6.765625 L 24.078125 -3.953125 C 22.785156 -2.679688 21.273438 -1.671875 19.546875 -0.921875 C 17.816406 -0.179688 16.078125 0.1875 14.328125 0.1875 C 10.628906 0.1875 7.519531 -1.039062 5 -3.5 C 2.476562 -5.96875 1.21875 -9.015625 1.21875 -12.640625 C 1.21875 -16.210938 2.492188 -19.21875 5.046875 -21.65625 C 7.609375 -24.09375 10.75 -25.3125 14.46875 -25.3125 Z M 14.46875 -25.3125 "/></g></g></g><g fill="#1e1504" fill-opacity="1"><g transform="translate(702.682525, 715.02671)"><g><path d="M 19.578125 -5.6875 L 6.875 -5.6875 L 4.46875 0 L 0.03125 0 L 11.15625 -25.203125 L 15.515625 -25.203125 L 26.53125 0 L 22 0 Z M 17.96875 -9.46875 L 13.21875 -20.65625 L 8.453125 -9.46875 Z M 17.96875 -9.46875 "/></g></g></g><g fill="#1e1504" fill-opacity="1"><g transform="translate(726.766569, 715.02671)"><g><path d="M 20.515625 -21.390625 L 12.53125 -21.390625 L 12.53125 0 L 8.28125 0 L 8.28125 -21.390625 L 0.328125 -21.390625 L 0.328125 -25.203125 L 20.515625 -25.203125 Z M 20.515625 -21.390625 "/></g></g></g><g fill="#1e1504" fill-opacity="1"><g transform="translate(747.610607, 715.02671)"><g><path d="M 7.5625 0 L 3.3125 0 L 3.3125 -25.203125 L 7.5625 -25.203125 Z M 7.5625 0 "/></g></g></g><g fill="#1e1504" fill-opacity="1"><g transform="translate(758.48263, 715.02671)"><g><path d="M 5.0625 -21.65625 C 7.632812 -24.09375 10.804688 -25.3125 14.578125 -25.3125 C 18.347656 -25.3125 21.515625 -24.09375 24.078125 -21.65625 C 26.648438 -19.21875 27.9375 -16.195312 27.9375 -12.59375 C 27.9375 -9 26.648438 -5.96875 24.078125 -3.5 C 21.515625 -1.039062 18.347656 0.1875 14.578125 0.1875 C 10.804688 0.1875 7.632812 -1.039062 5.0625 -3.5 C 2.5 -5.96875 1.21875 -9 1.21875 -12.59375 C 1.21875 -16.195312 2.5 -19.21875 5.0625 -21.65625 Z M 14.609375 -21.484375 C 12.117188 -21.484375 9.984375 -20.625 8.203125 -18.90625 C 6.429688 -17.195312 5.546875 -15.09375 5.546875 -12.59375 C 5.546875 -10.101562 6.4375 -7.988281 8.21875 -6.25 C 10.007812 -4.507812 12.140625 -3.640625 14.609375 -3.640625 C 17.085938 -3.640625 19.203125 -4.507812 20.953125 -6.25 C 22.703125 -7.988281 23.578125 -10.101562 23.578125 -12.59375 C 23.578125 -15.09375 22.703125 -17.195312 20.953125 -18.90625 C 19.203125 -20.625 17.085938 -21.484375 14.609375 -21.484375 Z M 14.609375 -21.484375 "/></g></g></g><g fill="#1e1504" fill-opacity="1"><g transform="translate(787.642677, 715.02671)"><g><path d="M 25.15625 0 L 20.984375 0 L 7.5625 -18.078125 L 7.5625 0 L 3.3125 0 L 3.3125 -25.203125 L 7.484375 -25.203125 L 20.984375 -7.09375 L 20.984375 -25.203125 L 25.15625 -25.203125 Z M 25.15625 0 "/></g></g></g><path stroke-linecap="butt" transform="matrix(0.75, 0, 0, 0.75, 383.249992, 561.749932)" fill="none" stroke-linejoin="miter" d="M 0.0000106694 2.000091 L 480.000052 2.000091 " stroke="#000000" stroke-width="4" stroke-opacity="1" stroke-miterlimit="4"/></svg>